<?xml version="1.0" standalone="no"?>
<!DOCTYPE svg PUBLIC "-//W3C//DTD SVG 20010904//EN"
 "http://www.w3.org/TR/2001/REC-SVG-20010904/DTD/svg10.dtd">
<svg version="1.0" xmlns="http://www.w3.org/2000/svg"
 width="32.000000pt" height="32.000000pt" viewBox="0 0 32.000000 32.000000"
 preserveAspectRatio="xMidYMid meet">

<g transform="translate(0.000000,32.000000) scale(0.100000,-0.100000)"
fill="#000000" stroke="none">
<path d="M90 298 c-33 -17 -51 -35 -67 -68 -29 -56 -29 -84 -1 -140 71 -140
279 -104 295 51 6 64 -28 127 -87 157 -24 12 -56 22 -70 22 -14 0 -46 -10 -70
-22z m160 -56 c0 -14 -13 -21 -51 -30 -66 -16 -79 -15 -79 2 0 17 5 21 43 30
22 5 27 3 28 -11 0 -14 2 -13 9 5 11 27 50 30 50 4z m-137 -32 c3 -13 0 -20
-8 -20 -8 0 -21 -10 -29 -22 -16 -22 -16 -21 -15 17 0 29 2 35 8 21 7 -19 8
-19 13 2 8 27 24 29 31 2z m145 -42 c2 -10 -1 -18 -7 -18 -6 0 -8 8 -5 18 5
16 5 16 -6 0 -15 -24 -41 -24 -34 0 5 16 5 16 -9 0 -18 -23 -38 -23 -31 0 5
16 5 16 -6 0 -12 -19 -40 -24 -40 -8 0 17 42 29 90 27 34 -1 46 -6 48 -19z
m-144 -3 c-6 -16 -34 -21 -34 -7 0 13 11 22 26 22 8 0 11 -6 8 -15z"/>
</g>
</svg>
